<svg width="128" height="128" xmlns="http://www.w3.org/2000/svg">

 <g>
  <title>Layer 1</title>
  <path stroke="#000" id="svg_2" d="m11.72094,8.88373l50.34893,0l0,66.55822l-50.34893,0l0,-66.55822z" opacity="undefined" stroke-dasharray="2,2" fill="#fff"/>
  <path stroke="#000" id="svg_4" d="m15.27927,12.91787l44.41852,0l0,0.46512l-44.41852,0l0,-0.46512z" stroke-dasharray="2,2" fill="#fff"/>
  <path stroke="#000" id="svg_5" d="m14.5816,19.19693l44.18597,0l0,3.25582l-44.18597,0l0,-3.25582z" stroke-dasharray="2,2" fill="#fff"/>
  <path stroke="#000" id="svg_6" d="m14.5816,26.17366l43.9534,0l0,3.48837l-43.9534,0l0,-3.48837z" stroke-dasharray="2,2" fill="#fff"/>
  <path stroke="#000" id="svg_7" d="m14.34905,34.31317l44.41852,0l0,2.09303l-44.41852,0l0,-2.09303z" stroke-dasharray="2,2" fill="#fff"/>
  <path stroke="#000" id="svg_8" d="m14.81417,40.35966l43.02318,0l0,3.25582l-43.02318,0l0,-3.25582z" stroke-dasharray="2,2" fill="#fff"/>
  <path stroke="#000" id="svg_9" d="m15.27928,48.03407l42.79062,0l0,0l-42.79062,0l0,0z" stroke-dasharray="2,2" fill="#fff"/>
  <path stroke="#000" id="svg_10" d="m15.51183,52.97583l30.46505,0l0,4.52937l-30.46505,0l0,-4.52937z" stroke-dasharray="2,2" fill="#fff"/>
  <path transform="rotate(90 47.685 89.6875)" id="svg_14" d="m36.17343,94.10608l15.77089,0l0,-8.83719l-2.41744,0l4.83487,-4.4186l4.83487,4.4186l-2.41744,0l0,13.25579l-20.60577,0l0,-4.4186z" stroke="#000" fill="#fff"/>
  <path stroke="#000" id="svg_15" d="m70.32548,56.79061l50.34893,0l0,66.55821l-50.34893,0l0,-66.55821z" opacity="undefined" fill="#fff"/>
  <path d="m74.23254,61.81371c0.23256,0 0.23256,0 0.46512,0c0.23256,0 0.71537,0.089 0.93023,0c0.30385,-0.12586 0.46512,-0.23256 0.93023,-0.23256c0.23256,0 0.46512,0 0.69768,0c0.23255,0 0.69767,0 0.93023,0c0.23256,0 0.46512,0 0.93023,0c0.23256,0 0.69768,0.23256 0.93023,0.46511c0.23256,0.23256 0.62639,0.33926 0.93024,0.46511c0.21485,0.08899 0.46511,0.23256 0.69767,0.23256c0.23256,0 0.69767,0 0.93023,0c0.23256,0 0.69768,-0.23256 0.93023,-0.46511c0.23256,-0.23256 0.53323,-0.30067 0.69768,-0.46512c0.16444,-0.16444 0.23256,-0.23256 0.23256,-0.46511c0,0 0.23255,0 0.23255,0c0.23256,0 0.46512,-0.23256 0.69768,-0.23256c0.46511,0 0.69767,0 1.16279,0c0.46511,0 0.93023,0 1.16279,0c0.23256,0 0.46511,0 0.69767,0c0.23256,0 0.62638,-0.33926 0.93023,-0.46512c0.42971,-0.178 0.65668,-0.34564 1.16279,-0.46511c0.22634,-0.05343 0.69768,0 1.16279,0c0.23256,0 0.69768,0 0.93024,0c0.23255,0 0.46511,0 0.46511,0c0.23256,0 0.23256,0 0.23256,0c0.23256,0 0.23256,0 0.46512,0c0.23255,0 0.42413,0.11308 0.93023,0.23256c0.45267,0.10686 0.94267,-0.10686 1.39535,0c0.5061,0.11947 1.1218,0.34564 1.6279,0.46511c0.45267,0.10686 0.65668,0.11308 1.16279,0.23256c0.22634,0.05343 0.71538,0.14356 0.93023,0.23256c0.30386,0.12586 0.65668,0.5782 1.16279,0.69767c0.22634,0.05343 0.60135,-0.09633 0.93024,0.23256c0.16444,0.16444 0.19157,0.11947 0.69767,0c0.67901,-0.16029 1.1218,-0.11308 1.62791,-0.23256c0.67901,-0.16029 1.16279,-0.23256 1.39535,-0.23256c0.46511,0 0.69767,0 1.16279,0c0.46511,0 0.93023,0 1.39534,0c0.23256,0 0.69768,0 0.93024,0c0.23255,0 0.46511,0 0.69767,0c0.23256,0 0.39382,0.1067 0.69767,0.23256c0.21486,0.089 0.69768,0 0.69768,0c0.23256,0 0.46511,0 0.46511,0c0.23256,0 0.23256,0 0.23256,0c0.23256,0 0.23256,0 0.23256,0c0.23256,0 0.23256,0 0.23256,0c0,0 0,0 0,0c0,0 0.23256,0 0.46511,-0.23256c0,0 0.23256,0 0.46512,0c0.23256,0 0.23256,-0.23256 0.46512,-0.23256c0,0 0,0 0.23255,0c0,0 0,0 0,0c0.23256,0 0.23256,0 0.46512,0c0,0 0,0 0.23256,0l0,0l0,0l0,0" id="svg_16" stroke="#000" fill="none"/>
  <path d="m74.23254,68.79044c0.23256,0 0.46512,0 0.93023,0c0.93024,0 1.59966,-0.11476 2.32558,-0.23256c0.45911,-0.0745 1.1628,-0.23256 1.86047,-0.23256c0.46512,0 0.93023,0 1.39535,0c0.23256,0 0.46511,0 0.69767,0c0,0 0.46512,0.23256 0.69768,0.46512c0.23255,0.23256 0.46511,0.69767 0.69767,0.93023c0.46512,0.46512 0.62617,0.74093 0.93023,1.16279c0.19231,0.26681 0.46512,0.23256 0.46512,0.46512c0,0 0.06812,0.06812 0.23256,0.23255c0.16444,0.16444 0.50837,0.0715 0.93023,-0.23255c0.26681,-0.1923 0.66342,-0.50537 0.93023,-0.69768c0.42186,-0.30406 0.89598,-0.50536 1.16279,-0.69767c0.42186,-0.30406 0.88924,-0.5782 1.39535,-0.69768c0.22634,-0.05343 0.70367,-0.15805 1.16279,-0.23255c0.72591,-0.1178 1.1218,-0.34564 1.6279,-0.46512c0.45267,-0.10686 1.17523,0.10686 1.62791,0c0.5061,-0.11948 1.16279,-0.23256 1.62791,-0.23256c0.46511,0 1.16279,0 1.6279,0c0.46512,0 1.17523,-0.10686 1.62791,0c0.5061,0.11948 0.94793,0.37612 1.16279,0.46512c0.30386,0.12586 0.46511,0.23256 0.46511,0.23256c0.23256,0.23255 0.23256,0.23255 0.46512,0.23255c0,0 0.23256,0 0.69767,0c0.23256,0 0.46512,0 0.93024,0c0.23255,0 0.70389,0.05343 0.93023,0c0.5061,-0.11947 0.69767,-0.23255 1.16279,-0.23255c0.23256,0 0.69767,0 1.16279,0c0.23256,0 0.69767,0 0.93023,0c0.23256,0 0.62639,0.1067 0.93023,0.23255c0.21486,0.089 0.46512,0 0.69768,0c0.23256,0 0.23256,0 0.46511,0c0.23256,0 0.39383,-0.1067 0.69768,-0.23255c0.21486,-0.089 0.46511,-0.23256 0.69767,-0.23256c0.23256,0 0.46512,-0.23256 0.46512,-0.23256c0.23256,0 0.46511,-0.23256 0.46511,-0.23256c0.23256,0 0.48282,-0.14356 0.69768,-0.23256c0.30385,-0.12585 0.39381,-0.33925 0.69767,-0.46511c0.42971,-0.17799 0.53323,-0.06812 0.69768,-0.23256c0.16444,-0.16444 0.23255,0 0.46511,0l0,0l0,0" id="svg_17" stroke="#000" fill="none"/>
  <path d="m74.4651,77.86019c0,0 0.46512,0 1.16279,0c0.69767,0 1.62791,0 2.7907,0c1.16279,0 2.32558,0 3.25581,0c1.16279,0 2.32558,0 3.25581,0c0.69768,0 1.39535,0 2.09302,0c0.69768,0 1.16279,0 1.39535,0c0.23256,0 0.46512,0 0.69768,0.23256c0,0 0.23255,0 0.69767,0c0.23256,0 0.69767,0 1.16279,0c0.46512,0 0.93023,0 1.62791,0c0.46511,0 0.94267,-0.1257 1.39534,-0.23256c0.5061,-0.11948 0.69768,-0.23256 1.39535,-0.23256c0.46512,0 0.93023,-0.23256 1.62791,-0.23256c0.46511,0 0.93023,0 1.39535,0c0.46511,0 0.93023,0 1.39534,0c0.23256,0 0.50053,0.17799 0.93024,0c0.30384,-0.12585 0.39381,-0.33925 0.69767,-0.46511c0.21486,-0.089 0.62637,-0.1067 0.93023,-0.23256c0.21486,-0.089 0.46512,0 0.69768,0c0.23255,0 0.46511,0 0.69767,0c0.23256,0 0.46512,0 0.69767,0c0.46512,0 0.69768,0 0.93024,0c0.23256,0 0.71537,-0.089 0.93023,0c0.30386,0.12586 0.46512,0.23256 0.69767,0.23256c0.46512,0 0.69768,0 0.93024,0c0.46511,0 0.46511,0 0.69767,0c0.23256,0 0.46512,0 0.69767,0c0,0 0,0 0,0c0.23256,0 0.23256,0 0.23256,0c0,0 0.23256,0.23256 0.23256,0.46511c0,0.23256 0.1067,0.39382 0.23256,0.69768c0.089,0.21486 0,0.23256 0,0.46511c0,0 0,0 0.23256,0c0,0 0,0 0,0c0,0 0.23255,0 0.23255,-0.23255l0,-0.23256" id="svg_18" stroke="#000" fill="none"/>
  <path d="m75.86044,85.53459c0,0 0.23256,0 0.46511,0c0.69768,0 1.62791,0 3.02325,0c1.16279,0 2.32558,0 3.72092,0c1.39535,0 3.02325,0 4.18604,0c1.39535,0 2.56685,0.09048 3.72092,0.23256c0.95168,0.11716 1.59966,0.57988 2.32558,0.69768c0.45911,0.0745 1.1218,0.34563 1.62791,0.46511c0.45267,0.10686 1.1982,0.17799 1.6279,0c0.30386,-0.12586 0.69767,-0.69768 1.39535,-1.39535c0.46512,-0.46511 1.16279,-0.93023 1.62791,-1.16279c0.46511,-0.23255 0.90199,-0.34731 1.6279,-0.46511c0.45911,-0.0745 0.93023,0 1.39535,0c0.46512,0 0.99969,-0.01197 1.39535,0.23256c0.44235,0.27338 0.62637,0.80437 0.93023,0.93023c0.42971,0.17799 0.65669,0.34564 1.16279,0.46511c0.22634,0.05343 0.65668,0.11308 1.16279,0.23256c0.22634,0.05343 0.69768,0 0.93023,0c0.23256,0 0.23256,0 0.46512,0c0,0 0.23256,0 0.23256,0c0,0 0,0 0,0c0.23256,0 0.23256,0 0.23256,0c0.23255,0 0.46511,0 0.46511,0c0.23256,0 0.46512,0 0.46512,0c0.23256,0 0.23256,0 0.23256,0l0,0" id="svg_19" stroke="#000" fill="none"/>
  <path d="m75.86044,92.74388c0,0 0.46511,0 0.93023,0c0.69767,0 1.62791,0 2.32558,0c0.69768,0 1.62791,0 2.32558,0c0.93023,0 1.86047,0 2.55814,0c0.69767,0 1.39535,0 1.86046,0c0.46512,0 1.16901,-0.05343 1.39535,0c0.5061,0.11948 0.97349,0.16106 1.39535,0.46512c0.26681,0.19231 0.23256,0.23256 0.46512,0.46512c0,0 0.23255,0 0.23255,0c0.23256,0 0.46512,0 0.93024,0c0.46511,0 1.15438,-0.25951 1.86046,-0.46512c0.92062,-0.26809 1.64035,-0.35826 2.09302,-0.46512c0.5061,-0.11947 1.16279,-0.23255 1.62791,-0.23255c0.46511,0 0.93023,0 1.6279,0c0.46512,0 0.93024,0 1.62791,0.23255c0.69767,0.23256 1.16279,0.46512 1.62791,0.46512c0.93023,0 1.6279,0.23256 2.09302,0.23256c0.69767,0 1.18145,-0.07227 1.86046,-0.23256c0.5061,-0.11948 0.94848,-0.18369 1.62791,-0.46512c0.48043,-0.199 0.88924,-0.34563 1.39535,-0.46511c0.22634,-0.05343 0.46511,0 0.69767,0c0.23256,0 0.46512,0 0.46512,0c0.23256,0 0.46511,0 0.46511,0c0,0 0,0 0.23256,0c0,0 0,0 0,0l0,0" id="svg_20" stroke="#000" fill="none"/>
  <path d="m74.69765,100.8834c0.23256,0 0.69767,0 1.6279,0c0.93024,0 2.10863,-0.11991 4.18604,-0.46511c2.11507,-0.35146 3.69627,-0.81066 5.58138,-1.16279c1.84306,-0.34428 3.48837,-0.23256 5.34883,-0.23256c1.6279,0 3.26373,-0.16041 4.88371,0c1.18005,0.11685 2.36262,0.60712 3.02325,0.93023c0.75323,0.3684 1.60035,0.97448 2.32558,1.39535c0.44976,0.26101 0.88924,0.5782 1.39535,0.69767c0.45267,0.10686 0.93023,0.23256 1.6279,0.23256c0.69768,0 1.16279,0 1.86047,-0.23256c0.69767,-0.23255 1.19983,-0.60712 1.86046,-0.93023c0.75323,-0.36839 1.39535,-0.69767 2.09302,-0.93023c0.69768,-0.23256 1.16279,-0.46512 1.62791,-0.46512c0.46512,0 1.16279,0 1.62791,0c0.46511,0 0.69767,0 0.93023,0c0.46511,0 0.46511,0 0.69767,0c0.23256,0 0.23256,0 0.46512,0c0,0 0,-0.23255 0.23256,-0.23255c0,0 0,0 0.23255,-0.23256c0,0 0,0 0,0c0,0 0,0 0,0l0,0" id="svg_21" stroke="#000" fill="none"/>
  <path d="m75.39532,110.65083c0,0 0.27281,-0.19831 0.46512,-0.46512c0.30405,-0.42185 1.05551,-1.07126 1.6279,-1.39534c0.8344,-0.47243 1.62791,-0.69768 2.09303,-0.69768c0.69767,0 1.16279,-0.23256 1.39535,-0.23256c0.46511,0 0.46511,0 0.69767,0c0.23256,0 0.46512,0.23256 0.69767,0.46512c0.23256,0.23256 0.69768,0.69767 1.39535,1.16279c0.69768,0.46512 1.60938,0.96929 2.55814,1.39535c1.14246,0.51304 2.32558,0.69767 3.72092,0.93023c1.39535,0.23256 2.79069,0.23256 4.41859,0.23256c1.62791,0 3.53915,0.02526 5.34882,-0.46512c1.70946,-0.46323 2.97279,-1.25726 4.65115,-2.09302c1.58542,-0.78948 2.76478,-1.67304 3.95348,-2.32558c0.9117,-0.50047 1.62791,-0.93023 2.55814,-1.39535c0.93023,-0.46511 1.41359,-0.6488 2.09302,-0.93023c0.48043,-0.19901 0.93645,-0.41169 1.16279,-0.46512c0.5061,-0.11947 0.69768,-0.23255 0.93023,-0.23255c0,0 0.23256,0 0.46512,0c0,0 0.1067,0.39381 0.23256,0.69767c0.089,0.21486 0,0.46512 0,0.69767c0,0.23256 0,0.46512 0,0.69768c0,0 0,0.23256 0,0.46511c0,0.23256 0,0.46512 0,0.46512l0,0.23256l0,0l0,0.23256" id="svg_22" stroke="#000" fill="none"/>
 </g>
</svg>